<svg width="30" height="30" viewBox="0 0 30 30" fill="none" xmlns="http://www.w3.org/2000/svg">
<path fill-rule="evenodd" clip-rule="evenodd" d="M29.849 21.5135C29.539 22.6015 28.829 23.3645 27.852 23.8765C26.161 24.7645 24.471 25.6565 22.751 26.4875C21.633 27.0255 20.429 27.0545 19.205 26.8465C17.074 26.4795 14.937 26.1515 12.803 25.8025C12.489 25.7525 12.17 25.7005 11.869 25.6025C11.21 25.3845 10.591 25.4915 9.99198 25.7905C9.70698 25.9325 9.43298 26.0955 9.16898 26.2715C8.94198 26.4225 8.72098 26.5035 8.46698 26.3695C8.21698 26.2335 8.13798 26.0125 8.15198 25.7365C8.22298 24.3365 8.28698 22.9365 8.35498 21.5375C8.40598 20.4665 8.46098 19.3965 8.51098 18.3235C8.53898 17.7325 8.67598 17.5785 9.26098 17.5065C10.45 17.3595 11.638 17.2165 12.826 17.0665C14.239 16.8865 15.623 17.0655 16.984 17.4295C18.539 17.8435 20.089 18.2885 21.629 18.7555C21.97 18.8595 22.301 19.0665 22.574 19.2975C23.22 19.8505 23.239 20.7055 22.653 21.3255C22.516 21.4685 22.352 21.5865 22.212 21.7745C22.787 21.6375 23.367 21.5235 23.935 21.3635C25.145 21.0215 26.309 20.5595 27.413 19.9495C28.403 19.4025 29.391 19.7725 29.8 20.8125C29.808 20.8355 29.833 20.8545 29.851 20.8755C29.849 21.0875 29.849 21.3015 29.849 21.5135ZM9.39098 24.7445C9.46898 24.7185 9.51598 24.7095 9.55898 24.6895C10.434 24.2925 11.329 24.1665 12.262 24.4745C12.426 24.5295 12.599 24.5595 12.77 24.5875C15.019 24.9545 17.272 25.3015 19.516 25.6885C20.658 25.8845 21.722 25.7185 22.746 25.2015C23.737 24.7015 24.743 24.2295 25.727 23.7175C26.383 23.3735 27.042 23.0165 27.647 22.5885C28.03 22.3175 28.331 21.9195 28.633 21.5505C28.773 21.3815 28.723 21.1615 28.548 21.0035C28.376 20.8475 28.215 20.8575 28.003 20.9775C27.549 21.2325 27.079 21.4635 26.601 21.6655C24.173 22.6835 21.675 23.3165 19.015 22.9645C18 22.8325 17.038 22.5215 16.139 22.0315C15.791 21.8415 15.561 21.3815 15.642 21.0595C15.723 20.7335 16.122 20.4565 16.541 20.4585C16.771 20.4595 17.005 20.4725 17.231 20.5135C17.906 20.6355 18.573 20.7925 19.251 20.8995C19.939 21.0055 20.637 21.0695 21.319 20.8505C21.572 20.7695 21.847 20.6355 21.851 20.3425C21.854 20.0435 21.556 19.9625 21.318 19.8925C20.096 19.5275 18.88 19.1515 17.651 18.8175C16.329 18.4565 14.993 18.0985 13.602 18.2135C12.352 18.3185 11.105 18.4775 9.85798 18.6275C9.78698 18.6365 9.68598 18.7905 9.67898 18.8835C9.63098 19.5775 9.60498 20.2745 9.57098 20.9685C9.51398 22.2125 9.45398 23.4585 9.39098 24.7445Z" fill="white"/>
<path fill-rule="evenodd" clip-rule="evenodd" d="M0.151978 25.7475C0.248978 25.1305 0.351978 24.5125 0.438978 23.8925C0.720978 21.9045 0.993978 19.9145 1.27798 17.9265C1.34898 17.4265 1.55598 17.2575 2.05798 17.2815C3.71798 17.3575 5.37698 17.4385 7.03698 17.5225C7.48598 17.5445 7.71398 17.7915 7.68498 18.2345C7.56498 20.0655 7.43898 21.8965 7.31398 23.7265C7.26898 24.3925 7.22298 25.0575 7.17598 25.7215C7.14698 26.1115 6.93698 26.3125 6.54398 26.3295C4.67198 26.4105 2.79898 26.4835 0.926978 26.5725C0.565978 26.5915 0.306978 26.4835 0.151978 26.1525C0.151978 26.0185 0.151978 25.8825 0.151978 25.7475ZM1.43398 25.3605C2.35098 25.3215 3.24198 25.2845 4.14198 25.2475C4.36198 23.0185 4.57798 20.8305 4.79798 18.6115C3.98698 18.5715 3.20198 18.5325 2.39898 18.4925C2.07698 20.7905 1.75898 23.0535 1.43398 25.3605ZM6.02598 25.1645C6.17098 23.0015 6.31498 20.8595 6.45998 18.6985C6.36298 18.6865 6.29698 18.6775 6.23198 18.6745C6.15698 18.6715 6.08198 18.6735 5.98498 18.6735C5.77098 20.8525 5.55898 23.0075 5.34798 25.1645C5.59898 25.1645 5.79898 25.1645 6.02598 25.1645Z" fill="white"/>
<path fill-rule="evenodd" clip-rule="evenodd" d="M21.593 2.02346C25.553 2.03346 28.933 5.37546 28.908 9.25346C28.884 13.1805 25.509 16.4835 21.542 16.4655C17.58 16.4475 14.237 13.1255 14.247 9.21746C14.257 5.31646 17.63 2.01446 21.593 2.02346ZM21.574 15.2925C21.91 15.2615 22.249 15.2505 22.582 15.1945C24.811 14.8165 26.448 13.6285 27.274 11.5125C28.114 9.35646 27.854 7.26846 26.383 5.45046C24.881 3.59046 22.853 2.95846 20.525 3.30246C17.337 3.77346 15.017 6.61346 15.498 10.0845C15.93 13.1845 18.442 15.2875 21.574 15.2925Z" fill="white"/>
<path fill-rule="evenodd" clip-rule="evenodd" d="M22.131 6.11646C22.49 6.14746 22.818 6.16146 23.14 6.20446C23.502 6.25246 23.733 6.53646 23.694 6.86046C23.653 7.20646 23.367 7.41446 22.985 7.37546C22.774 7.35346 22.563 7.33046 22.352 7.30946C22.294 7.30446 22.237 7.30846 22.131 7.30846C22.131 7.76046 22.158 8.20246 22.123 8.63946C22.092 9.04846 22.194 9.27546 22.602 9.47046C22.984 9.65246 23.336 9.97946 23.596 10.3235C24.108 10.9975 23.99 11.8235 23.339 12.3685C23.063 12.5995 22.73 12.7785 22.399 12.9235C22.182 13.0185 22.104 13.1235 22.128 13.3475C22.147 13.5195 22.137 13.6955 22.131 13.8695C22.116 14.2345 21.872 14.4905 21.542 14.4955C21.209 14.5005 20.961 14.2545 20.939 13.8845C20.928 13.6845 20.937 13.4825 20.937 13.2855C20.565 13.2465 20.219 13.2225 19.88 13.1685C19.599 13.1235 19.439 12.9355 19.408 12.6535C19.367 12.2555 19.688 11.9635 20.106 12.0085C20.364 12.0365 20.623 12.0655 20.935 12.1005C20.935 11.7335 20.904 11.3965 20.941 11.0665C21.01 10.4745 20.903 10.0565 20.269 9.78346C19.914 9.62946 19.62 9.23746 19.401 8.88746C19.025 8.29046 19.123 7.61946 19.649 7.14846C19.965 6.86546 20.361 6.66546 20.74 6.46046C20.882 6.38346 20.947 6.31946 20.938 6.15946C20.927 5.96746 20.926 5.77246 20.938 5.58046C20.961 5.23446 21.217 4.98746 21.533 4.98846C21.861 4.98946 22.116 5.25346 22.13 5.61046C22.136 5.77346 22.131 5.93646 22.131 6.11646ZM22.148 10.4795C22.148 10.9365 22.148 11.3525 22.148 11.7765C22.509 11.6275 22.78 11.3205 22.751 11.0645C22.714 10.7285 22.451 10.6045 22.148 10.4795ZM20.916 7.60946C20.597 7.80846 20.326 7.99146 20.352 8.34546C20.373 8.65146 20.626 8.78046 20.916 8.88146C20.916 8.45746 20.916 8.06146 20.916 7.60946Z" fill="white"/>
</svg>
