<svg width="28" height="27" viewBox="0 0 28 27" fill="none" xmlns="http://www.w3.org/2000/svg">
<rect x="0.617676" y="0.5" width="26" height="26" rx="4.5" stroke="white"/>
<g clip-path="url(#clip0_154_7725)">
<path d="M16.543 6.35156H10.2091C8.14773 6.35156 6.4707 8.02859 6.4707 10.09V16.4239C6.4707 18.4853 8.14773 20.1623 10.2091 20.1623H16.5431C18.6044 20.1623 20.2814 18.4853 20.2814 16.4239V10.09C20.2814 8.02859 18.6044 6.35156 16.543 6.35156V6.35156ZM13.3761 17.0332C11.2938 17.0332 9.5998 15.3392 9.5998 13.2569C9.5998 11.1746 11.2938 9.48066 13.3761 9.48066C15.4583 9.48066 17.1523 11.1746 17.1523 13.2569C17.1523 15.3392 15.4583 17.0332 13.3761 17.0332V17.0332ZM17.2426 10.3712C16.6273 10.3712 16.1268 9.87073 16.1268 9.25538C16.1268 8.64004 16.6273 8.13944 17.2426 8.13944C17.858 8.13944 18.3586 8.64004 18.3586 9.25538C18.3586 9.87073 17.858 10.3712 17.2426 10.3712Z" fill="white"/>
<path d="M13.376 10.2891C11.7403 10.2891 10.4094 11.6199 10.4094 13.2557C10.4094 14.8914 11.7403 16.2223 13.376 16.2223C15.0119 16.2223 16.3427 14.8914 16.3427 13.2557C16.3427 11.6199 15.0119 10.2891 13.376 10.2891V10.2891Z" fill="white"/>
<path d="M17.2426 8.94531C17.0738 8.94531 16.9364 9.08271 16.9364 9.25151C16.9364 9.42031 17.0738 9.55771 17.2426 9.55771C17.4115 9.55771 17.5489 9.42041 17.5489 9.25151C17.5489 9.08261 17.4115 8.94531 17.2426 8.94531Z" fill="white"/>
</g>
<defs>
<clipPath id="clip0_154_7725">
<rect width="13.8107" height="13.8107" fill="white" transform="translate(6.4707 6.35156)"/>
</clipPath>
</defs>
</svg>
