<svg width="28" height="27" viewBox="0 0 28 27" fill="none" xmlns="http://www.w3.org/2000/svg">
<rect x="0.617676" y="0.5" width="26" height="26" rx="4.5" stroke="#F16126"/>
<g clip-path="url(#clip0_1_1674)">
<path d="M16.543 6.35278H10.2091C8.14773 6.35278 6.4707 8.02981 6.4707 10.0912V16.4252C6.4707 18.4865 8.14773 20.1635 10.2091 20.1635H16.5431C18.6044 20.1635 20.2814 18.4865 20.2814 16.4252V10.0912C20.2814 8.02981 18.6044 6.35278 16.543 6.35278V6.35278ZM13.3761 17.0344C11.2938 17.0344 9.5998 15.3404 9.5998 13.2581C9.5998 11.1759 11.2938 9.48188 13.3761 9.48188C15.4583 9.48188 17.1523 11.1759 17.1523 13.2581C17.1523 15.3404 15.4583 17.0344 13.3761 17.0344ZM17.2426 10.3724C16.6273 10.3724 16.1268 9.87195 16.1268 9.2566C16.1268 8.64126 16.6273 8.14066 17.2426 8.14066C17.858 8.14066 18.3586 8.64126 18.3586 9.2566C18.3586 9.87195 17.858 10.3724 17.2426 10.3724Z" fill="#F16126"/>
<path d="M13.376 10.2915C11.7403 10.2915 10.4094 11.6223 10.4094 13.2581C10.4094 14.8938 11.7403 16.2247 13.376 16.2247C15.0119 16.2247 16.3427 14.8938 16.3427 13.2581C16.3427 11.6223 15.0119 10.2915 13.376 10.2915Z" fill="#F16126"/>
<path d="M17.2426 8.95044C17.0738 8.95044 16.9364 9.08784 16.9364 9.25664C16.9364 9.42544 17.0738 9.56283 17.2426 9.56283C17.4115 9.56283 17.5489 9.42554 17.5489 9.25664C17.5489 9.08773 17.4115 8.95044 17.2426 8.95044Z" fill="#F16126"/>
</g>
<defs>
<clipPath id="clip0_1_1674">
<rect width="13.8107" height="13.8107" fill="white" transform="translate(6.4707 6.35278)"/>
</clipPath>
</defs>
</svg>
