<svg width="160" height="138" viewBox="0 0 160 138" fill="none" xmlns="http://www.w3.org/2000/svg">
<path d="M87.045 33.2081C87.8284 32.7049 88.6123 32.2014 89.3978 31.6993L89.1285 31.278C89.6964 30.9149 90.2653 30.5524 90.8357 30.1911C90.8431 29.4481 90.8508 28.7051 90.8586 27.9621L91.3586 27.9674C91.3621 27.6388 91.3656 27.3102 91.3691 26.9817C91.3833 25.6432 91.3975 24.3046 91.4102 22.9659L90.9103 22.9611C90.9262 21.2945 90.9398 19.6281 90.9484 17.9618L91.4484 17.9643C91.4571 16.2971 91.4607 14.6299 91.4565 12.9626L90.9565 12.9639C90.9523 11.2982 90.9403 9.6328 90.9177 7.96789L91.4177 7.96111C91.3951 6.294 91.3619 4.62708 91.3153 2.9605L90.8155 2.97447C90.7975 2.33092 90.7775 1.68746 90.7554 1.04409C90.6946 1.05378 90.6339 1.06346 90.5732 1.07313C90.1907 1.13407 89.8094 1.19483 89.4267 1.25739L89.3461 0.763943C88.0858 0.969989 86.8289 1.19266 85.5895 1.48619L85.7047 1.97274C85.2059 2.09087 84.7113 2.22035 84.2215 2.36473C84.1736 3.17307 84.1322 3.98184 84.0966 4.79102L83.5971 4.76907C83.5156 6.62438 83.4648 8.48101 83.4361 10.3385L83.9361 10.3463C83.9074 12.1989 83.9008 14.053 83.9076 15.9085L83.4076 15.9103C83.4144 17.7673 83.4347 19.6247 83.4597 21.482L83.9597 21.4753C83.9737 22.5174 83.9893 23.5583 84.0049 24.5995C84.0171 25.4146 84.0293 26.23 84.0407 27.0464L83.5408 27.0534C83.5669 28.9113 83.5892 30.7687 83.5992 32.6251L84.0992 32.6224C84.1025 33.2479 84.1044 33.8734 84.1046 34.4989C84.4921 34.2515 84.8794 34.0036 85.2668 33.7553L85.5366 34.1763C86.0394 33.8539 86.5421 33.5311 87.045 33.2081Z" stroke="#ACA7AC" stroke-opacity="0.5" stroke-dasharray="6 6"/>
<path d="M93.6432 61.0573L93.626 61.0876L93.6131 61.1199C93.1962 62.1657 92.8133 63.2249 92.4719 64.2967L92.9483 64.4484C92.2717 66.5728 91.7611 68.7438 91.4746 70.9562L90.9787 70.892C90.8343 72.0072 90.7459 73.1337 90.7209 74.2706C90.6819 75.2877 90.6056 76.302 90.4931 77.3116L90.9901 77.367C90.7617 79.4165 90.3862 81.4464 89.8738 83.4414L89.3895 83.317C88.8828 85.2897 88.2405 87.2284 87.4728 89.1179L87.9361 89.3061C87.161 91.2138 86.2595 93.0716 85.2418 94.8643L84.807 94.6175C83.8006 96.3903 82.6794 98.0988 81.4535 99.728L81.853 100.029C80.6137 101.676 79.2685 103.242 77.8276 104.714L77.4704 104.364C76.0433 105.821 74.5216 107.184 72.9155 108.436L73.223 108.83C71.5984 110.097 69.8882 111.254 68.1024 112.284L67.8526 111.851C66.9712 112.359 66.0713 112.836 65.1542 113.281L65.1536 113.281C64.1704 113.759 63.1683 114.197 62.1505 114.595L62.3328 115.061C60.2735 115.867 58.1513 116.513 55.9912 116.998L55.8817 116.51C53.7487 116.989 51.5781 117.309 49.3946 117.471L49.4315 117.969C47.2254 118.133 45.0066 118.135 42.8002 117.978L42.8358 117.479C40.652 117.323 38.4806 117.008 36.3466 116.534L36.2382 117.022C34.0772 116.542 31.9537 115.901 29.8928 115.098L30.0743 114.632C29.056 114.235 28.0532 113.799 27.0693 113.322L27.0639 113.32C26.239 112.932 25.4287 112.517 24.6338 112.077L24.3913 112.514C22.7779 111.619 21.2277 110.619 19.7473 109.525L20.0444 109.123C18.5798 108.041 17.1838 106.866 15.8631 105.61L15.5185 105.972C14.1844 104.704 12.9265 103.353 11.7513 101.933L12.1366 101.614C10.9751 100.21 9.89504 98.7377 8.90295 97.2076L8.48342 97.4796C7.48105 95.9335 6.5676 94.3297 5.74952 92.6798L6.19748 92.4577C5.38694 90.823 4.67107 89.1427 4.05627 87.4287L3.58564 87.5975C2.96287 85.8613 2.44264 84.0906 2.03146 82.2974L2.51881 82.1856C2.11111 80.4075 1.81191 78.6075 1.62761 76.7974L1.13018 76.848C0.94355 75.0151 0.87333 73.1715 0.926109 71.3292L1.4259 71.3435C1.47792 69.528 1.65083 67.7144 1.95096 65.9144L1.45777 65.8322C1.75897 64.0258 2.18676 62.2325 2.74749 60.4639L3.22411 60.615C3.49692 59.7546 3.80161 58.9001 4.13891 58.053C4.55494 57.097 4.99735 56.1543 5.46543 55.226L5.01897 55.0009C5.96896 53.1168 7.02373 51.2912 8.17737 49.5324L8.59546 49.8066C9.7405 48.0609 10.9838 46.3816 12.3195 44.777L11.9352 44.4571C13.2809 42.8406 14.7194 41.2992 16.245 39.8412L16.5904 40.2027C17.3419 39.4845 18.1147 38.7867 18.9081 38.1104C19.6041 37.5547 20.3162 37.0242 21.0433 36.5187L20.7578 36.1082C22.2439 35.075 23.7909 34.1455 25.3868 33.3196L25.6166 33.7637C27.2014 32.9435 28.8353 32.2266 30.5062 31.6127L30.3338 31.1434C32.0265 30.5216 33.7564 30.0045 35.5112 29.5919L35.6257 30.0787C37.3606 29.6708 39.1205 29.3662 40.8932 29.1648L40.8367 28.668C42.6271 28.4645 44.4302 28.3652 46.2337 28.3699L46.2324 28.8699C48.0154 28.8745 49.7987 28.9819 51.5703 29.1917L51.6291 28.6952C53.4189 28.9072 55.1968 29.2228 56.9507 29.6418L56.8346 30.1281C58.568 30.5421 60.2774 31.0582 61.9509 31.676L62.1241 31.207C63.8128 31.8305 65.4656 32.5566 67.0703 33.3851L66.8409 33.8294C67.6316 34.2376 68.4104 34.671 69.1759 35.1295L69.965 35.6021L69.9325 34.6828C69.9128 34.1271 69.8909 33.5631 69.8689 32.9939C69.8572 32.6946 69.8456 32.3938 69.8342 32.0921L69.3345 32.111C69.2703 30.4172 69.2129 28.6769 69.2115 26.9272L69.7115 26.9268C69.7102 25.2078 69.7633 23.4855 69.9172 21.7934L69.4192 21.7481C69.5778 20.0046 69.8425 18.2885 70.2636 16.6377L70.7481 16.7613C71.1717 15.1009 71.7545 13.5159 72.5471 12.0427L72.1067 11.8058C72.9108 10.3111 73.9277 8.92278 75.2096 7.67982L75.5577 8.03878C75.9198 7.68765 76.304 7.34826 76.7115 7.02155C76.716 7.61578 76.7204 8.21003 76.7248 8.80431L77.2248 8.80064C77.2384 10.6519 77.2511 12.5034 77.2613 14.3551L76.7613 14.3579C76.7715 16.2088 76.7792 18.0597 76.7827 19.9106L77.2827 19.9096C77.2862 21.7611 77.2854 23.6127 77.2788 25.4642L76.7788 25.4624C76.7721 27.3129 76.7596 29.1632 76.7395 31.0132L77.2395 31.0186C77.2194 32.8702 77.1917 34.7215 77.1547 36.5725L76.6548 36.5625C76.6363 37.4873 76.6155 38.412 76.5922 39.3365L76.5913 39.3719L76.5954 39.407C76.6774 40.11 76.6127 40.7697 76.4453 41.4034L76.9288 41.5311C76.5596 42.9292 75.7358 44.1826 74.8902 45.4068L74.4788 45.1227C74.4107 45.2213 74.342 45.3203 74.2731 45.4197C74.0389 45.7574 73.8019 46.0991 73.5743 46.4433C73.0285 45.9121 72.4679 45.3959 71.8934 44.8956L71.565 45.2727C70.1219 44.016 68.59 42.8603 66.9857 41.8176L67.2581 41.3984C65.6329 40.342 63.9341 39.4 62.1784 38.5843L61.9677 39.0378C60.2304 38.2307 58.437 37.549 56.604 37.0047L56.7463 36.5254C54.8876 35.9734 52.9881 35.5607 51.0647 35.2995L50.9974 35.795C49.106 35.5381 47.1917 35.43 45.2712 35.4823L45.2576 34.9825C44.2936 35.0088 43.3278 35.0749 42.3624 35.1824C41.5972 35.2375 40.8395 35.3251 40.0892 35.4416L40.1659 35.9357C38.6747 36.167 37.2104 36.5145 35.7702 36.9484L35.626 36.4697C34.1687 36.9087 32.7385 37.4343 31.3335 38.0155L31.5246 38.4775C30.134 39.0527 28.7648 39.6844 27.4144 40.3431L27.1952 39.8937C26.5143 40.2259 25.8386 40.5646 25.1682 40.906L25.1423 40.9192L25.1181 40.9353C24.2469 41.5149 23.4006 42.1282 22.5811 42.7731L22.8903 43.166C21.2659 44.4443 19.748 45.8485 18.3518 47.3621L17.9843 47.0231C16.5673 48.5592 15.274 50.2066 14.1197 51.9488L14.5365 52.2249C13.3993 53.9413 12.3989 55.7506 11.5504 57.6364L11.0945 57.4313C10.6666 58.3822 10.2769 59.3524 9.92715 60.3399L9.92123 60.3566L9.91651 60.3737C9.66496 61.2843 9.43717 62.2045 9.23455 63.1321L9.72304 63.2388C9.3235 65.068 9.02287 66.9258 8.83218 68.7946L8.33476 68.7439C8.14208 70.6321 8.06037 72.5323 8.10101 74.4268L8.60089 74.416C8.64124 76.2966 8.80351 78.1703 9.09887 80.0192L8.60513 80.0981C8.90523 81.9767 9.3412 83.8314 9.92484 85.6438L10.4008 85.4905C10.9736 87.2694 11.6903 89.0055 12.5621 90.6812L12.1185 90.912C12.555 91.751 13.0298 92.5752 13.5443 93.3824C14.0558 94.2282 14.602 95.046 15.1803 95.8352L15.5836 95.5397C16.737 97.1137 18.0202 98.5727 19.4117 99.9121L19.0649 100.272C20.4844 101.639 22.0143 102.882 23.6324 103.997L23.9162 103.586C25.5117 104.686 27.1946 105.66 28.9433 106.505L28.7258 106.956C30.4923 107.809 32.3247 108.532 34.201 109.119L34.3504 108.642C36.2005 109.221 38.0941 109.668 40.0097 109.976L39.9302 110.47C41.8695 110.782 43.8314 110.955 45.7941 110.985L45.8016 110.485C47.7429 110.514 49.6846 110.401 51.6052 110.141L51.6723 110.636C53.6201 110.373 55.5471 109.96 57.4314 109.393L57.2874 108.914C59.1399 108.356 60.9498 107.648 62.6956 106.785L62.9172 107.234C63.7932 106.801 64.6535 106.329 65.4953 105.818C66.4319 105.308 67.3406 104.754 68.2195 104.16L67.9395 103.745C69.6859 102.565 71.3138 101.224 72.8088 99.7491L73.1599 100.105C74.6783 98.6074 76.0611 96.9746 77.2937 95.2349L76.8858 94.9459C78.101 93.2309 79.1686 91.4102 80.0743 89.5116L80.5255 89.7268C81.4429 87.8037 82.1963 85.8015 82.7712 83.7482L82.2897 83.6134C82.8563 81.5899 83.2469 79.5164 83.4472 77.4206L83.945 77.4682C84.0463 76.4078 84.0997 75.3416 84.1032 74.273H84.1034L84.1031 74.2616C84.0757 72.8477 84.1492 71.4435 84.3144 70.0534L83.8179 69.9944C84.1553 67.1542 84.8694 64.3756 85.8824 61.6973L86.3501 61.8742C86.8446 60.5669 87.4115 59.283 88.0418 58.0271C88.493 57.3425 88.9682 56.672 89.4661 56.0177L89.0683 55.7149C90.0875 54.3757 91.2007 53.1037 92.3967 51.917L92.7489 52.272C93.9298 51.1002 95.1922 50.0135 96.5246 49.0295L96.2276 48.6273C97.5859 47.6242 99.0167 46.7259 100.509 45.9508L100.739 46.3945C102.21 45.63 103.741 44.988 105.32 44.4863L105.168 44.0098C106.765 43.5021 108.412 43.1352 110.097 42.9272L110.158 43.4235C110.974 43.3228 111.798 43.2602 112.63 43.2376L112.643 43.2372L112.657 43.2361C113.713 43.1508 114.766 43.126 115.814 43.1585L115.83 42.6587C117.983 42.7255 120.112 43.0303 122.187 43.546L122.066 44.0312C124.112 44.5395 126.107 45.2562 128.023 46.1552L128.235 45.7025C130.172 46.611 132.028 47.7023 133.776 48.9496L133.486 49.3566C134.202 49.8674 134.9 50.4047 135.577 50.9667C135.298 51.2549 135.019 51.543 134.739 51.8311L135.098 52.1793C134.29 53.0115 133.48 53.8429 132.669 54.6717L132.311 54.3219C132.019 54.621 131.726 54.9197 131.433 55.218C130.868 54.7088 130.282 54.2327 129.678 53.7894L129.382 54.1926C127.921 53.1209 126.347 52.2451 124.701 51.5603L124.893 51.0987C123.197 50.3936 121.428 49.8875 119.625 49.5748L119.54 50.0674C117.773 49.7609 115.972 49.6438 114.178 49.7112L114.159 49.2116C112.331 49.2803 110.51 49.537 108.736 49.977L108.857 50.4623C107.113 50.8948 105.416 51.5079 103.806 52.2966L103.586 51.8476C101.943 52.6527 100.388 53.638 98.9621 54.799L99.2778 55.1867C97.898 56.3105 96.6435 57.6018 95.5537 59.0557L95.1536 58.7558C94.6083 59.4834 94.1032 60.2507 93.6432 61.0573Z" stroke="#ACA7AC" stroke-opacity="0.5" stroke-dasharray="6 6"/>
<path d="M72.3664 57.6323L72.2124 57.5764L72.2113 57.5796L72.3629 57.6421L72.3664 57.6323ZM71.4926 61.1821C71.7396 60.1649 72.0425 59.1642 72.4204 58.184L72.7315 58.2971L72.9091 57.8422C73.2672 56.9253 73.6552 56.023 74.0719 55.1361L73.6194 54.9235C74.4664 53.1206 75.4301 51.3812 76.4992 49.7124L76.9202 49.9821C77.9808 48.3264 79.1464 46.7407 80.4056 45.2322L80.0218 44.9118C81.2939 43.3878 82.6603 41.9421 84.1095 40.5819L84.4517 40.9465C85.8838 39.6022 87.3978 38.3422 88.9822 37.1736L88.6854 36.7712C90.282 35.5936 91.9492 34.5081 93.6756 33.5218L93.9236 33.9559C94.7732 33.4705 95.6373 33.0094 96.5145 32.5734C97.3281 32.2214 98.1516 31.8942 98.9835 31.5917L98.8126 31.1218C100.506 30.5059 102.234 29.9915 103.985 29.5784L104.1 30.065C105.834 29.6558 107.591 29.3471 109.36 29.1385L109.301 28.6419C111.089 28.431 112.889 28.3215 114.689 28.313L114.691 28.813C116.473 28.8047 118.255 28.8963 120.026 29.0878L120.08 28.5907C121.87 28.7843 123.649 29.0786 125.405 29.4736L125.295 29.9614C127.033 30.3521 128.748 30.8421 130.429 31.4312L130.595 30.9593C132.292 31.5538 133.955 32.2482 135.574 33.0422L135.354 33.4912C136.143 33.8782 136.921 34.2891 137.688 34.7239C138.401 35.254 139.115 35.7847 139.827 36.3175L140.126 35.9171C141.566 36.9944 143.002 38.0804 144.424 39.1857L144.117 39.5805C144.677 40.0156 145.235 40.4536 145.79 40.895C145.488 41.1903 145.186 41.4858 144.885 41.7814L145.235 42.1383C144.363 42.9939 143.494 43.8511 142.629 44.7136L142.276 44.3596C141.96 44.6752 141.644 44.9915 141.328 45.3087C140.831 44.8357 140.321 44.3766 139.8 43.932L139.475 44.3124C138.196 43.2211 136.844 42.2177 135.434 41.3089L135.705 40.8886C134.274 39.9659 132.782 39.1393 131.243 38.4155L131.031 38.868C129.51 38.1528 127.943 37.5394 126.341 37.0345L126.492 36.5576C124.869 36.0459 123.211 35.6439 121.531 35.3585L121.448 35.8515C119.795 35.5707 118.121 35.4044 116.437 35.3592L116.451 34.8594C115.605 34.8367 114.757 34.8441 113.908 34.8825C112.951 34.8793 111.997 34.9167 111.049 34.993L111.089 35.4914C109.199 35.6435 107.332 35.9526 105.504 36.4058L105.383 35.9205C103.523 36.3816 101.703 36.9897 99.9394 37.7313L100.133 38.1923C98.3932 38.924 96.7081 39.7876 95.0942 40.7703L94.8341 40.3433C93.2011 41.3376 91.6401 42.4522 90.1675 43.6738L90.4867 44.0586C89.0335 45.2642 87.6672 46.5755 86.4041 47.9795L86.0324 47.6451C84.753 49.0671 83.5779 50.5834 82.5232 52.1809L82.9405 52.4563C81.9011 54.0308 80.9805 55.6849 80.1949 57.4056L79.7401 57.198C79.343 58.0677 78.9798 58.9544 78.6527 59.8564L78.6495 59.8649L78.6467 59.8736C78.3116 60.9147 78.0468 61.9671 77.8323 63.0257L78.3224 63.1249C77.8993 65.213 77.6722 67.3384 77.4859 69.4693L76.9878 69.4258C76.9386 69.988 76.8924 70.5483 76.8464 71.1071C76.717 72.6781 76.5886 74.2358 76.398 75.7831L76.8943 75.8443C76.6326 77.969 76.2549 80.067 75.6029 82.1058L75.1266 81.9535C74.8114 82.9391 74.4314 83.9083 73.9685 84.858L73.9648 84.8655L73.9614 84.8731C73.5849 85.7158 73.1689 86.5406 72.7162 87.3451L73.1519 87.5903C72.2321 89.2249 71.1636 90.7764 69.9687 92.2253L69.5829 91.9072C68.4077 93.3322 67.1082 94.6567 65.7062 95.8617L66.0321 96.2409C64.608 97.4649 63.0799 98.5673 61.4701 99.5288L61.2137 99.0995C59.6256 100.048 57.9574 100.857 56.2312 101.507L56.4075 101.975C54.6522 102.637 52.8371 103.137 50.9847 103.457L50.8996 102.965C49.9928 103.121 49.0772 103.234 48.1555 103.3L48.1509 103.301C47.2285 103.376 46.307 103.402 45.3892 103.382L45.3784 103.882C43.4945 103.841 41.6268 103.609 39.7987 103.203L39.907 102.715C38.1063 102.315 36.3437 101.745 34.6423 101.021L34.4466 101.481C32.7219 100.747 31.0601 99.8595 29.4845 98.8358L29.7569 98.4165C28.2076 97.41 26.7429 96.2701 25.3857 95.0153L25.0463 95.3824C23.6671 94.1073 22.3973 92.7152 21.2601 91.2248L21.6576 90.9215C21.0969 90.1867 20.5692 89.4279 20.0771 88.6472L20.0772 88.6472L20.0723 88.6398C19.5125 87.7856 19.0097 86.9048 18.5616 86.0019L18.1137 86.2242C17.1895 84.3622 16.4941 82.4092 16.0076 80.4038L16.4935 80.2859C16.0153 78.3145 15.7419 76.2895 15.6547 74.2487L15.1551 74.27C15.067 72.208 15.1662 70.1324 15.4332 68.0813L15.929 68.1459C16.0609 67.1331 16.2342 66.1262 16.4466 65.1298L16.1825 65.0735L16.0696 64.9346L16.2937 64.7525L16.609 65.1406L16.721 65.0496L16.8393 64.9535L16.8839 64.8077C17.2048 63.7582 17.5858 62.7306 18.0223 61.7287L17.564 61.529C18.4554 59.4834 19.5741 57.5445 20.8826 55.7437L21.287 56.0376C22.5759 54.2638 24.0521 52.6257 25.6788 51.1546L25.3434 50.7837C26.9968 49.2884 28.8028 47.9633 30.7238 46.8399L30.9762 47.2715C32.871 46.1635 34.8784 45.2554 36.9609 44.5782L36.8063 44.1027C38.9197 43.4155 41.1102 42.9617 43.3401 42.773L43.3822 43.2712C44.4674 43.1794 45.5617 43.1515 46.6609 43.1913L46.6722 43.1917L46.6836 43.1916C47.7642 43.1814 48.8342 43.2407 49.8913 43.3639L49.9492 42.8673C52.1326 43.1219 54.26 43.6445 56.3088 44.3894L56.138 44.8593C58.1526 45.5918 60.0925 46.5437 61.9352 47.6711L62.1961 47.2446C64.0571 48.3833 65.8179 49.6969 67.4563 51.1405L67.1258 51.5157C67.8616 52.164 68.5725 52.839 69.2566 53.5365C69.0574 54.1543 68.8634 54.7728 68.6741 55.3921L69.1522 55.5383C68.716 56.9653 68.3042 58.3976 67.9101 59.8386L67.4278 59.7067C67.3266 60.0765 67.2267 60.4468 67.1277 60.8177C66.7304 60.2583 66.3145 59.7097 65.8809 59.1741L65.4923 59.4887C64.1859 57.875 62.7171 56.3821 61.1119 55.0726L61.428 54.6852C59.7814 53.3418 57.9905 52.1855 56.0818 51.2831L55.8681 51.7351C53.9947 50.8495 52.0088 50.2154 49.937 49.8973L50.0129 49.4031C48.977 49.2441 47.92 49.1621 46.8451 49.1649C45.6049 49.1021 44.3739 49.1464 43.1619 49.2895L43.2206 49.7861C40.8102 50.0707 38.4747 50.7553 36.2927 51.7722L36.0815 51.319C33.8521 52.3581 31.781 53.7363 29.9477 55.3843L30.2819 55.7561C28.4911 57.3659 26.9311 59.239 25.68 61.3082L25.2522 61.0495C24.6165 62.1009 24.0586 63.2024 23.5886 64.3455L23.5726 64.3842L23.5634 64.425C23.2539 65.7898 22.9615 67.1876 22.7309 68.6007L23.2244 68.6812C22.7679 71.4785 22.5578 74.3248 22.9397 77.1008L22.4444 77.1689C22.6391 78.5838 22.9844 79.9854 23.5253 81.3568C23.8711 82.3743 24.29 83.3618 24.7748 84.3134L25.2203 84.0864C26.1756 85.9615 27.3932 87.6958 28.8156 89.2428L28.4475 89.5812C29.8996 91.1605 31.5606 92.5482 33.3722 93.6971L33.64 93.2749C35.4152 94.4007 37.3379 95.2923 39.3506 95.903L39.2054 96.3815C40.2291 96.6921 41.2761 96.9317 42.3391 97.0944C43.4765 97.3044 44.6218 97.4161 45.7647 97.436L45.7734 96.9361C48.0253 96.9754 50.27 96.6497 52.4257 96.0086L52.5683 96.4878C54.7649 95.8345 56.8699 94.8611 58.801 93.6181L58.5304 93.1977C60.4214 91.9805 62.143 90.499 63.6141 88.8024L63.9918 89.1299C64.742 88.2647 65.4289 87.3442 66.042 86.3746C66.7761 85.3031 67.3711 84.1953 67.8572 83.0601L67.3976 82.8633C68.3734 80.5847 68.9033 78.1846 69.2436 75.7288L69.7388 75.7975C69.9936 73.9589 70.1433 72.0849 70.292 70.2239C70.3404 69.6187 70.3886 69.0149 70.4403 68.4142L69.9422 68.3713C70.1543 65.906 70.4275 63.4493 71.0067 61.0641L71.4926 61.1821Z" stroke="#ACA7AC" stroke-opacity="0.5" stroke-dasharray="6 6"/>
<path d="M159.877 71.5368C159.84 69.4074 159.641 67.2767 159.269 65.1624L158.776 65.249C158.616 64.3393 158.424 63.4328 158.199 62.5309C157.311 62.532 156.424 62.5328 155.537 62.5333L155.537 62.0333C153.503 62.0346 151.469 62.0344 149.436 62.0333L149.435 62.5333C147.402 62.5322 145.368 62.5301 143.334 62.5277L143.335 62.0277C141.646 62.0256 139.957 62.0233 138.269 62.021C137.924 62.0205 137.579 62.0201 137.234 62.0196L137.233 62.5196C135.2 62.5168 133.166 62.5141 131.132 62.512L131.133 62.012C129.099 62.0099 127.066 62.0084 125.032 62.0079L125.032 62.5079C122.998 62.5075 120.965 62.5082 118.932 62.5104L118.931 62.0104C116.897 62.0127 114.864 62.0165 112.83 62.0225L112.832 62.5225C110.798 62.5285 108.765 62.5365 106.732 62.5472L106.729 62.0472C104.696 62.0578 102.662 62.0711 100.628 62.0874L100.632 62.5874C99.7243 62.5947 98.8161 62.6027 97.908 62.6113C97.6898 63.1163 97.4735 63.6221 97.2588 64.1284L96.7985 63.9333C96.2834 65.1481 95.7779 66.3665 95.2803 67.5884L95.7434 67.777C95.5852 68.1653 95.4278 68.554 95.2712 68.9431C95.992 68.9621 96.713 68.9797 97.4339 68.9959L97.4227 69.4958C99.3447 69.5391 101.267 69.5729 103.19 69.5991L103.196 69.0991C105.117 69.1252 107.039 69.1437 108.96 69.1562L108.957 69.6562C110.88 69.6687 112.802 69.6753 114.725 69.6777L114.726 69.1777C116.648 69.1802 118.57 69.1785 120.492 69.1745L120.493 69.6745C122.416 69.6705 124.338 69.6641 126.261 69.6571L126.259 69.1571C126.888 69.1548 127.518 69.1525 128.147 69.1501C129.441 69.1453 130.734 69.1405 132.027 69.1362L132.029 69.6362C133.951 69.6299 135.874 69.6247 137.797 69.6225L137.796 69.1225C139.719 69.1203 141.643 69.1211 143.566 69.1266L143.564 69.6266C145.487 69.6322 147.41 69.6424 149.332 69.6592L149.337 69.1593C150.298 69.1677 151.26 69.1777 152.222 69.1896L152.704 69.1956L152.716 69.6775C152.735 70.4773 152.744 71.2802 152.741 72.0845L152.241 72.0821C152.233 73.6761 152.173 75.2735 152.036 76.8618L152.535 76.9045C152.397 78.5126 152.181 80.1145 151.863 81.697L151.373 81.5985C151.059 83.1609 150.644 84.7017 150.105 86.2083L150.575 86.377C150.304 87.1344 150.001 87.8839 149.664 88.6237C149.296 89.519 148.89 90.3938 148.449 91.247L148.005 91.0171C147.125 92.7156 146.102 94.3274 144.956 95.843L145.354 96.1447C144.188 97.6864 142.896 99.1293 141.499 100.464L141.154 100.102C139.778 101.417 138.298 102.625 136.735 103.717L137.021 104.127C135.44 105.232 133.775 106.219 132.047 107.079L131.824 106.631C130.119 107.48 128.35 108.204 126.539 108.793L126.694 109.269C124.858 109.866 122.978 110.326 121.074 110.641L120.992 110.147C119.112 110.458 117.21 110.624 115.304 110.635L115.307 111.135C114.346 111.141 113.384 111.108 112.424 111.035C111.26 111.008 110.109 110.914 108.972 110.76L109.039 110.265C106.766 109.957 104.549 109.402 102.399 108.647L102.234 109.119C100.057 108.354 97.951 107.387 95.9281 106.266L96.1705 105.828C94.1769 104.723 92.2621 103.464 90.4381 102.097L90.1383 102.497C89.3335 101.894 88.5465 101.27 87.7783 100.629C87.4774 100.907 87.1768 101.185 86.8764 101.464L86.5367 101.097C86.1022 101.499 85.6682 101.901 85.2342 102.304C84.852 102.658 84.4699 103.012 84.0873 103.366L84.4271 103.733C84.1413 103.998 83.8552 104.263 83.5688 104.528C84.2064 105.206 84.8669 105.86 85.5484 106.487L85.2097 106.855C86.8466 108.363 88.603 109.724 90.4543 110.936L90.7282 110.518C92.562 111.718 94.4907 112.77 96.4898 113.67L96.2845 114.126C98.3051 115.036 100.396 115.793 102.533 116.392L102.668 115.911C104.778 116.503 106.934 116.94 109.11 117.219L109.047 117.715C111.246 117.997 113.467 118.12 115.684 118.079L115.674 117.579C117.868 117.539 120.057 117.337 122.218 116.971L122.302 117.464C124.487 117.094 126.644 116.557 128.749 115.85L128.59 115.376C129.627 115.028 130.651 114.638 131.659 114.206L131.666 114.203L131.666 114.203C132.644 113.801 133.604 113.36 134.544 112.884L134.77 113.33C136.68 112.363 138.509 111.251 140.248 110.013L139.958 109.606C141.678 108.381 143.309 107.03 144.84 105.57L145.185 105.932C146.73 104.46 148.175 102.878 149.508 101.206L149.117 100.894C150.434 99.2418 151.642 97.4996 152.73 95.6854L153.159 95.9426C154.258 94.1095 155.237 92.2038 156.083 90.2431L155.624 90.0449C156.463 88.1017 157.172 86.1043 157.74 84.0705L158.221 84.205C158.797 82.1448 159.229 80.0474 159.509 77.9306L159.013 77.8651C159.289 75.7711 159.414 73.6586 159.377 71.5455L159.877 71.5368Z" stroke="#ACA7AC" stroke-opacity="0.5" stroke-dasharray="6 6"/>
<path d="M124.547 94.5059C122.643 95.4338 120.614 96.0857 118.493 96.3837L118.563 96.8788C117.507 97.0271 116.429 97.09 115.332 97.0583C114.513 97.1253 113.701 97.1368 112.899 97.0974L112.923 96.598C111.311 96.5189 109.736 96.2291 108.211 95.7697L108.067 96.2484C106.506 95.7784 104.999 95.136 103.557 94.3648L103.793 93.9239C102.388 93.1725 101.041 92.2946 99.7643 91.3305L99.463 91.7295C98.9411 91.3354 98.4308 90.9272 97.9331 90.5078C97.6252 90.8262 97.3174 91.145 97.0095 91.4642L96.6497 91.117C96.2097 91.5731 95.7697 92.0297 95.3297 92.4863C94.937 92.8939 94.5442 93.3015 94.1515 93.7087L94.5113 94.0558C94.2196 94.3583 93.9278 94.6607 93.6359 94.9627C94.3762 95.5681 95.1389 96.1506 95.9216 96.7066L95.632 97.1142C97.5081 98.4469 99.4992 99.6294 101.576 100.611L101.79 100.159C103.85 101.132 105.993 101.903 108.189 102.422L108.074 102.909C110.309 103.437 112.6 103.71 114.919 103.674L114.911 103.174C116.03 103.156 117.155 103.066 118.283 102.896L118.295 102.894L118.308 102.893C119.438 102.78 120.551 102.595 121.644 102.344L121.756 102.831C124.008 102.313 126.173 101.518 128.218 100.489L127.994 100.043C130.009 99.0288 131.909 97.7827 133.661 96.3459L133.978 96.7326C135.75 95.2797 137.373 93.6358 138.816 91.8428L138.427 91.5294C139.845 89.7673 141.086 87.8593 142.121 85.8467L142.566 86.0753C143.617 84.0311 144.458 81.8802 145.058 79.6646L144.575 79.5338C144.821 78.6272 145.026 77.7098 145.187 76.7846C144.318 76.7676 143.45 76.7525 142.581 76.7392L142.588 76.2393C140.464 76.2068 138.34 76.185 136.216 76.1708L136.212 76.6708C134.089 76.6567 131.966 76.6503 129.842 76.6487L129.843 76.1487C127.718 76.1472 125.594 76.1505 123.47 76.1557L123.471 76.6557C122.001 76.6594 120.532 76.664 119.063 76.6686C118.408 76.6706 117.753 76.6727 117.098 76.6747L117.097 76.1747C114.972 76.181 112.848 76.1865 110.724 76.1883L110.724 76.6883C108.599 76.69 106.474 76.688 104.349 76.6793L104.351 76.1793C102.226 76.1707 100.102 76.1554 97.9778 76.1306L97.972 76.6306C97.05 76.6198 96.128 76.6073 95.206 76.5927C95.1171 77.0734 95.029 77.5548 94.9416 78.0365L94.4496 77.9472C94.2698 78.938 94.0928 79.9299 93.9158 80.9211C93.8711 81.1717 93.8264 81.4222 93.7817 81.6726L94.2739 81.7606C94.1976 82.1877 94.1211 82.6147 94.0443 83.0415C94.7311 83.0485 95.4178 83.0546 96.1045 83.0599L96.1006 83.5599C97.8696 83.5737 99.6386 83.5823 101.408 83.5874L101.409 83.0874C103.177 83.0925 104.946 83.0941 106.715 83.0938L106.715 83.5938C108.484 83.5934 110.253 83.5911 112.022 83.5885L112.021 83.0885C112.421 83.0879 112.822 83.0873 113.222 83.0866C114.591 83.0845 115.96 83.0824 117.328 83.081L117.329 83.581C119.098 83.5793 120.867 83.5787 122.636 83.581L122.636 83.081C124.406 83.0832 126.176 83.0883 127.945 83.0978L127.943 83.5977C129.712 83.6072 131.481 83.6211 133.25 83.641L133.255 83.141C134.14 83.1509 135.025 83.1624 135.91 83.1755L136.772 83.1883L136.333 83.9299C135.788 84.8518 135.191 85.7528 134.545 86.6232L134.143 86.3252C132.882 88.0235 131.434 89.6031 129.83 90.9885L130.157 91.3668C128.513 92.7873 126.705 94.0104 124.766 94.9553L124.547 94.5059Z" stroke="#ACA7AC" stroke-opacity="0.5" stroke-dasharray="6 6"/>
<path d="M41.079 119.871C38.7777 120.825 36.9369 122.666 35.9826 124.967L36.4444 125.159C36.0088 126.209 35.7682 127.361 35.7682 128.571C35.7682 129.781 36.0089 130.933 36.4445 131.983L35.9826 132.175C36.9369 134.476 38.7778 136.317 41.0791 137.271L41.2706 136.809C42.321 137.245 43.4732 137.486 44.6829 137.486C45.8925 137.486 47.0447 137.245 48.0952 136.809L48.2867 137.271C50.588 136.317 52.4288 134.476 53.3832 132.175L52.9213 131.983C53.3569 130.933 53.5976 129.781 53.5976 128.571C53.5976 127.361 53.3569 126.209 52.9214 125.159L53.3832 124.967C52.4289 122.666 50.5881 120.825 48.2867 119.871L48.0952 120.332C47.0448 119.897 45.8926 119.656 44.6829 119.656C43.4732 119.656 42.321 119.897 41.2706 120.332L41.079 119.871ZM42.4559 133.947C41.0337 133.357 39.8961 132.22 39.3063 130.798L38.8445 130.989C38.5352 130.244 38.3648 129.427 38.3648 128.571C38.3648 127.715 38.5352 126.898 38.8445 126.152L39.3063 126.344C39.8961 124.922 41.0337 123.784 42.4559 123.195L42.2644 122.733C43.01 122.424 43.8272 122.253 44.6829 122.253C45.5386 122.253 46.3558 122.424 47.1014 122.733L46.9099 123.195C48.332 123.784 49.4697 124.922 50.0595 126.344L50.5213 126.152C50.8306 126.898 51.001 127.715 51.001 128.571C51.001 129.427 50.8306 130.244 50.5213 130.989L50.0595 130.798C49.4697 132.22 48.332 133.357 46.9099 133.947L47.1014 134.409C46.3558 134.718 45.5386 134.889 44.6829 134.889C43.8272 134.889 43.01 134.718 42.2644 134.409L42.4559 133.947Z" stroke="#ACA7AC" stroke-opacity="0.5" stroke-dasharray="6 6"/>
<path d="M117.765 119.527C115.464 120.481 113.623 122.322 112.669 124.623L113.131 124.815C112.695 125.865 112.454 127.017 112.454 128.227C112.454 129.437 112.695 130.589 113.131 131.639L112.669 131.831C113.623 134.132 115.464 135.973 117.765 136.927L117.957 136.466C119.007 136.901 120.159 137.142 121.369 137.142C122.579 137.142 123.731 136.901 124.781 136.466L124.973 136.927C127.274 135.973 129.115 134.132 130.069 131.831L129.608 131.639C130.043 130.589 130.284 129.437 130.284 128.227C130.284 127.017 130.043 125.865 129.607 124.815L130.069 124.623C129.115 122.322 127.274 120.481 124.973 119.527L124.781 119.989C123.731 119.553 122.579 119.312 121.369 119.312C120.159 119.312 119.007 119.553 117.957 119.989L117.765 119.527ZM119.142 133.604C117.72 133.014 116.582 131.876 115.992 130.454L115.531 130.646C115.221 129.9 115.051 129.083 115.051 128.227C115.051 127.371 115.221 126.554 115.531 125.809L115.993 126C116.582 124.578 117.72 123.441 119.142 122.851L118.951 122.389C119.696 122.08 120.513 121.91 121.369 121.91C122.225 121.91 123.042 122.08 123.787 122.39L123.596 122.851C125.018 123.441 126.155 124.578 126.745 126L127.207 125.809C127.516 126.554 127.687 127.372 127.687 128.227C127.687 129.083 127.516 129.9 127.207 130.646L126.745 130.454C126.156 131.876 125.018 133.014 123.596 133.604L123.788 134.066C123.042 134.375 122.225 134.545 121.369 134.545C120.513 134.545 119.696 134.375 118.95 134.066L119.142 133.604Z" stroke="#ACA7AC" stroke-opacity="0.5" stroke-dasharray="6 6"/>
</svg>
