<svg width="30" height="30" viewBox="0 0 30 30" fill="none" xmlns="http://www.w3.org/2000/svg">
<g clip-path="url(#clip0_154_7689)">
<path fill-rule="evenodd" clip-rule="evenodd" d="M7.815 0.70813C9.685 0.70813 11.554 0.71313 13.423 0.70313C13.87 0.70213 14.222 0.85213 14.532 1.17113C19.478 6.25213 24.428 11.3291 29.375 16.4071C29.918 16.9651 29.918 17.6551 29.375 18.2141C25.759 21.9281 22.142 25.6401 18.521 29.3481C17.959 29.9231 17.247 29.9181 16.68 29.3361C12.826 25.3831 8.973 21.4281 5.119 17.4731C3.841 16.1621 2.567 14.8491 1.282 13.5451C0.971003 13.2281 0.822003 12.8781 0.823003 12.4311C0.833003 9.02013 0.829003 5.61013 0.830003 2.20113C0.830003 2.01713 0.822003 1.82913 0.859003 1.65113C0.980003 1.07913 1.466 0.71013 2.089 0.70913C3.998 0.70713 5.906 0.70813 7.815 0.70813ZM28.564 17.3131C28.521 17.2631 28.498 17.2331 28.47 17.2061C23.556 12.1641 18.644 7.12213 13.725 2.08513C13.632 1.99013 13.459 1.92713 13.325 1.92713C9.684 1.91913 6.043 1.92013 2.401 1.92013C2.288 1.92013 2.175 1.92013 2.052 1.92013C2.045 2.03313 2.036 2.10813 2.035 2.18413C2.034 5.57413 2.032 8.96413 2.042 12.3521C2.042 12.4951 2.131 12.6671 2.234 12.7731C6.899 17.5691 11.567 22.3641 16.241 27.1511C16.693 27.6141 17.18 28.0431 17.665 28.5011C21.265 24.8071 24.906 21.0691 28.564 17.3131Z" fill="white"/>
<path fill-rule="evenodd" clip-rule="evenodd" d="M4.466 7.37113C4.462 5.70013 5.82 4.34213 7.494 4.34513C9.168 4.34813 10.519 5.70313 10.516 7.37813C10.513 9.02713 9.148 10.3931 7.501 10.3951C5.83 10.3961 4.469 9.04113 4.466 7.37113ZM7.499 9.18613C8.492 9.17913 9.311 8.35513 9.312 7.36413C9.312 6.36513 8.462 5.52813 7.467 5.54613C6.47 5.56513 5.657 6.39713 5.67 7.38313C5.684 8.37813 6.511 9.19413 7.499 9.18613Z" fill="white"/>
</g>
<defs>
<clipPath id="clip0_154_7689">
<rect width="30" height="30" fill="white"/>
</clipPath>
</defs>
</svg>
