<svg width="28" height="27" viewBox="0 0 28 27" fill="none" xmlns="http://www.w3.org/2000/svg">
<rect x="1.05859" y="0.5" width="26" height="26" rx="4.5" stroke="white"/>
<g clip-path="url(#clip0_154_7731)">
<path d="M21.2978 9.0869C20.7628 9.32157 20.1928 9.47712 19.5984 9.55265C20.2099 9.1876 20.6765 8.61395 20.8959 7.92251C20.3258 8.26239 19.6964 8.50246 19.0257 8.63643C18.4844 8.06008 17.713 7.70312 16.8714 7.70312C15.2385 7.70312 13.924 9.02845 13.924 10.6532C13.924 10.887 13.9438 11.1118 13.9923 11.3257C11.5404 11.2062 9.37076 10.031 7.91326 8.24081C7.6588 8.68228 7.50955 9.1876 7.50955 9.73158C7.50955 10.753 8.03554 11.6584 8.81959 12.1826C8.34574 12.1736 7.88089 12.0361 7.48707 11.8194C7.48707 11.8284 7.48707 11.8401 7.48707 11.8517C7.48707 13.285 8.50939 14.4754 9.85 14.7497C9.60993 14.8153 9.34828 14.8468 9.07674 14.8468C8.88792 14.8468 8.69731 14.836 8.51838 14.7964C8.90051 15.9644 9.98487 16.8231 11.2742 16.8509C10.2708 17.6359 8.99672 18.1088 7.61744 18.1088C7.37558 18.1088 7.1436 18.098 6.91162 18.0684C8.21807 18.9109 9.76638 19.3919 11.4361 19.3919C16.8633 19.3919 19.8304 14.8962 19.8304 10.9994C19.8304 10.869 19.8259 10.7431 19.8196 10.6181C20.405 10.2027 20.8968 9.68392 21.2978 9.0869Z" fill="white"/>
</g>
<defs>
<clipPath id="clip0_154_7731">
<rect width="14.3862" height="14.3862" fill="white" transform="translate(6.91162 6.35156)"/>
</clipPath>
</defs>
</svg>
