<svg width="28" height="27" viewBox="0 0 28 27" fill="none" xmlns="http://www.w3.org/2000/svg">
<rect x="1.05859" y="0.5" width="26" height="26" rx="4.5" stroke="#F16126"/>
<g clip-path="url(#clip0_1_1680)">
<path d="M21.2978 9.08519C20.7628 9.31986 20.1928 9.47541 19.5984 9.55094C20.2099 9.18589 20.6765 8.61224 20.8959 7.92081C20.3258 8.26068 19.6964 8.50075 19.0257 8.63472C18.4844 8.05837 17.713 7.70142 16.8714 7.70142C15.2385 7.70142 13.924 9.02674 13.924 10.6515C13.924 10.8853 13.9438 11.11 13.9923 11.324C11.5404 11.2045 9.37076 10.0293 7.91326 8.2391C7.6588 8.68058 7.50955 9.18589 7.50955 9.72987C7.50955 10.7513 8.03554 11.6567 8.81959 12.1809C8.34574 12.1719 7.88089 12.0344 7.48707 11.8177C7.48707 11.8267 7.48707 11.8383 7.48707 11.85C7.48707 13.2833 8.50939 14.4737 9.85 14.748C9.60993 14.8136 9.34828 14.8451 9.07674 14.8451C8.88792 14.8451 8.69731 14.8343 8.51838 14.7947C8.90051 15.9627 9.98487 16.8214 11.2742 16.8492C10.2708 17.6342 8.99672 18.1071 7.61744 18.1071C7.37558 18.1071 7.1436 18.0963 6.91162 18.0667C8.21807 18.9092 9.76638 19.3902 11.4361 19.3902C16.8633 19.3902 19.8304 14.8945 19.8304 10.9977C19.8304 10.8673 19.8259 10.7414 19.8196 10.6164C20.405 10.201 20.8968 9.68221 21.2978 9.08519Z" fill="#F16126"/>
</g>
<defs>
<clipPath id="clip0_1_1680">
<rect width="14.3862" height="14.3862" fill="white" transform="translate(6.91162 6.35278)"/>
</clipPath>
</defs>
</svg>
