<svg width="28" height="27" viewBox="0 0 28 27" fill="none" xmlns="http://www.w3.org/2000/svg">
<rect x="1.17603" y="0.5" width="26" height="26" rx="4.5" stroke="white"/>
<rect x="1.17603" y="0.5" width="26" height="26" rx="4.5" stroke="black" stroke-opacity="0.2"/>
<g clip-path="url(#clip0_154_7736)">
<path d="M21.2771 9.19841C21.0968 8.52817 20.5684 7.99983 19.8982 7.81935C18.6739 7.48438 13.7768 7.48438 13.7768 7.48438C13.7768 7.48438 8.87978 7.48438 7.65552 7.80665C6.99826 7.98694 6.45693 8.52826 6.27665 9.19841C5.95447 10.4226 5.95447 12.9614 5.95447 12.9614C5.95447 12.9614 5.95447 15.5129 6.27665 16.7243C6.45712 17.3945 6.98537 17.9228 7.65561 18.1033C8.89268 18.4383 13.777 18.4383 13.777 18.4383C13.777 18.4383 18.6739 18.4383 19.8982 18.1161C20.5684 17.9357 21.0968 17.4073 21.2773 16.7372C21.5994 15.5129 21.5994 12.9743 21.5994 12.9743C21.5994 12.9743 21.6122 10.4226 21.2771 9.19841V9.19841ZM12.2176 15.3068V10.6159L16.2899 12.9614L12.2176 15.3068Z" fill="white"/>
</g>
<defs>
<clipPath id="clip0_154_7736">
<rect width="16.688" height="16.688" fill="white" transform="translate(5.44116 4.76562)"/>
</clipPath>
</defs>
</svg>
