<svg width="28" height="27" viewBox="0 0 28 27" fill="none" xmlns="http://www.w3.org/2000/svg">
<rect x="1.17603" y="0.5" width="26" height="26" rx="4.5" stroke="#F16126"/>
<rect x="1.17603" y="0.5" width="26" height="26" rx="4.5" stroke="black" stroke-opacity="0.2"/>
<g clip-path="url(#clip0_1_1684)">
<path d="M21.2771 9.19817C21.0969 8.52793 20.5684 7.99958 19.8983 7.81911C18.674 7.48413 13.7768 7.48413 13.7768 7.48413C13.7768 7.48413 8.87985 7.48413 7.65558 7.80641C6.99832 7.98669 6.45699 8.52802 6.27671 9.19817C5.95453 10.4223 5.95453 12.9611 5.95453 12.9611C5.95453 12.9611 5.95453 15.5127 6.27671 16.7241C6.45718 17.3942 6.98543 17.9226 7.65567 18.103C8.89274 18.4381 13.777 18.4381 13.777 18.4381C13.777 18.4381 18.674 18.4381 19.8983 18.1158C20.5685 17.9354 21.0969 17.4071 21.2773 16.737C21.5994 15.5127 21.5994 12.974 21.5994 12.974C21.5994 12.974 21.6123 10.4223 21.2771 9.19817ZM12.2177 15.3065V10.6157L16.2899 12.9611L12.2177 15.3065Z" fill="#F16126"/>
</g>
<defs>
<clipPath id="clip0_1_1684">
<rect width="16.688" height="16.688" fill="white" transform="translate(5.44116 4.76465)"/>
</clipPath>
</defs>
</svg>
